<mxfile host="app.diagrams.net" modified="2020-07-29T17:45:11.885Z" agent="5.0 (Macintosh; Intel Mac OS X 10_15_5) AppleWebKit/537.36 (KHTML, like Gecko) Chrome/84.0.4147.89 Safari/537.36" etag="JRyD2qU36n0JjyK6sXh9" version="13.5.5" type="github">
  <diagram id="R_x9M94vLI_s3U01qXsl" name="Page-1">
    <mxGraphModel dx="746" dy="971" grid="1" gridSize="10" guides="1" tooltips="1" connect="1" arrows="1" fold="1" page="1" pageScale="1" pageWidth="827" pageHeight="1169" math="0" shadow="0">
      <root>
        <mxCell id="0" />
        <mxCell id="1" parent="0" />
        <mxCell id="KHNuTAtytMUBHbaw16F--7" style="rounded=0;orthogonalLoop=1;jettySize=auto;html=1;entryX=0.5;entryY=0;entryDx=0;entryDy=0;" edge="1" parent="1" target="KHNuTAtytMUBHbaw16F--10">
          <mxGeometry relative="1" as="geometry">
            <mxPoint x="150" y="540" as="targetPoint" />
            <mxPoint x="530" y="330" as="sourcePoint" />
          </mxGeometry>
        </mxCell>
        <mxCell id="KHNuTAtytMUBHbaw16F--8" style="rounded=0;orthogonalLoop=1;jettySize=auto;html=1;entryX=0.5;entryY=0;entryDx=0;entryDy=0;exitX=1;exitY=1;exitDx=0;exitDy=0;" edge="1" parent="1" source="KHNuTAtytMUBHbaw16F--1" target="KHNuTAtytMUBHbaw16F--12">
          <mxGeometry relative="1" as="geometry">
            <mxPoint x="360" y="540" as="targetPoint" />
          </mxGeometry>
        </mxCell>
        <mxCell id="KHNuTAtytMUBHbaw16F--15" style="rounded=0;orthogonalLoop=1;jettySize=auto;html=1;entryX=0.5;entryY=0;entryDx=0;entryDy=0;exitX=1;exitY=1;exitDx=0;exitDy=0;" edge="1" parent="1" source="KHNuTAtytMUBHbaw16F--1" target="KHNuTAtytMUBHbaw16F--14">
          <mxGeometry relative="1" as="geometry">
            <mxPoint x="480" y="540" as="targetPoint" />
          </mxGeometry>
        </mxCell>
        <mxCell id="KHNuTAtytMUBHbaw16F--16" style="rounded=0;orthogonalLoop=1;jettySize=auto;html=1;entryX=0.5;entryY=0;entryDx=0;entryDy=0;exitX=1;exitY=1;exitDx=0;exitDy=0;" edge="1" parent="1" source="KHNuTAtytMUBHbaw16F--1" target="KHNuTAtytMUBHbaw16F--13">
          <mxGeometry relative="1" as="geometry">
            <mxPoint x="600" y="540" as="targetPoint" />
          </mxGeometry>
        </mxCell>
        <mxCell id="KHNuTAtytMUBHbaw16F--1" value="" style="rounded=0;whiteSpace=wrap;html=1;" vertex="1" parent="1">
          <mxGeometry x="190" y="200" width="340" height="130" as="geometry" />
        </mxCell>
        <mxCell id="KHNuTAtytMUBHbaw16F--2" value="" style="rounded=0;whiteSpace=wrap;html=1;fillColor=#fff2cc;strokeColor=#d6b656;" vertex="1" parent="1">
          <mxGeometry x="310" y="230" width="30" height="60" as="geometry" />
        </mxCell>
        <mxCell id="KHNuTAtytMUBHbaw16F--3" value="" style="rounded=0;whiteSpace=wrap;html=1;fillColor=#fff2cc;strokeColor=#d6b656;" vertex="1" parent="1">
          <mxGeometry x="360" y="230" width="30" height="60" as="geometry" />
        </mxCell>
        <mxCell id="KHNuTAtytMUBHbaw16F--4" value="" style="rounded=0;whiteSpace=wrap;html=1;fillColor=#fff2cc;strokeColor=#d6b656;" vertex="1" parent="1">
          <mxGeometry x="414" y="230" width="30" height="60" as="geometry" />
        </mxCell>
        <mxCell id="KHNuTAtytMUBHbaw16F--5" value="" style="rounded=0;whiteSpace=wrap;html=1;fillColor=#fff2cc;strokeColor=#d6b656;" vertex="1" parent="1">
          <mxGeometry x="470" y="230" width="30" height="60" as="geometry" />
        </mxCell>
        <mxCell id="KHNuTAtytMUBHbaw16F--6" value="&lt;font style=&quot;font-size: 14px&quot;&gt;Global queues of runnable processes&lt;/font&gt;" style="text;html=1;align=center;verticalAlign=middle;resizable=0;points=[];autosize=1;" vertex="1" parent="1">
          <mxGeometry x="289" y="170" width="250" height="20" as="geometry" />
        </mxCell>
        <mxCell id="KHNuTAtytMUBHbaw16F--10" value="CPU" style="rounded=0;whiteSpace=wrap;html=1;fillColor=#dae8fc;strokeColor=#6c8ebf;" vertex="1" parent="1">
          <mxGeometry x="380" y="490" width="50" height="50" as="geometry" />
        </mxCell>
        <mxCell id="KHNuTAtytMUBHbaw16F--12" value="CPU" style="rounded=0;whiteSpace=wrap;html=1;fillColor=#dae8fc;strokeColor=#6c8ebf;" vertex="1" parent="1">
          <mxGeometry x="450" y="490" width="50" height="50" as="geometry" />
        </mxCell>
        <mxCell id="KHNuTAtytMUBHbaw16F--13" value="CPU" style="rounded=0;whiteSpace=wrap;html=1;fillColor=#dae8fc;strokeColor=#6c8ebf;" vertex="1" parent="1">
          <mxGeometry x="584" y="490" width="50" height="50" as="geometry" />
        </mxCell>
        <mxCell id="KHNuTAtytMUBHbaw16F--14" value="CPU" style="rounded=0;whiteSpace=wrap;html=1;fillColor=#dae8fc;strokeColor=#6c8ebf;" vertex="1" parent="1">
          <mxGeometry x="515" y="490" width="50" height="50" as="geometry" />
        </mxCell>
      </root>
    </mxGraphModel>
  </diagram>
</mxfile>
